<mxfile host="app.diagrams.net" modified="2020-09-22T08:52:54.242Z" agent="5.0 (Windows NT 10.0; Win64; x64) AppleWebKit/537.36 (KHTML, like Gecko) Chrome/85.0.4183.102 Safari/537.36" etag="ZyF4e0mqRpwsx23Cqj8v" version="13.7.3" type="github">
  <diagram id="uHmUCZgvbmK29CenuAyl" name="Page-1">
    <mxGraphModel dx="2336" dy="1237" grid="1" gridSize="10" guides="1" tooltips="1" connect="1" arrows="1" fold="1" page="1" pageScale="1" pageWidth="827" pageHeight="1169" math="0" shadow="0">
      <root>
        <mxCell id="0" />
        <mxCell id="1" parent="0" />
        <mxCell id="QwXEgg9R403QVItoGBs6-8" value="" style="ellipse;whiteSpace=wrap;html=1;aspect=fixed;" vertex="1" parent="1">
          <mxGeometry x="280" y="490" width="80" height="80" as="geometry" />
        </mxCell>
        <mxCell id="QwXEgg9R403QVItoGBs6-4" value="" style="shape=cylinder3;whiteSpace=wrap;html=1;boundedLbl=1;backgroundOutline=1;size=15;rotation=50;" vertex="1" parent="1">
          <mxGeometry x="360" y="290" width="80" height="230" as="geometry" />
        </mxCell>
        <mxCell id="QwXEgg9R403QVItoGBs6-3" value="" style="shape=umlActor;verticalLabelPosition=bottom;verticalAlign=top;html=1;outlineConnect=0;rotation=45;" vertex="1" parent="1">
          <mxGeometry x="503.77" y="185.05" width="70" height="180" as="geometry" />
        </mxCell>
        <mxCell id="QwXEgg9R403QVItoGBs6-6" value="" style="shape=or;whiteSpace=wrap;html=1;rotation=-45;" vertex="1" parent="1">
          <mxGeometry x="578.98" y="196.41" width="30" height="44.01" as="geometry" />
        </mxCell>
        <mxCell id="QwXEgg9R403QVItoGBs6-7" value="Weeeeeee!!!" style="shape=callout;whiteSpace=wrap;html=1;perimeter=calloutPerimeter;position2=1;" vertex="1" parent="1">
          <mxGeometry x="440" y="140" width="120" height="80" as="geometry" />
        </mxCell>
        <mxCell id="QwXEgg9R403QVItoGBs6-9" value="" style="ellipse;whiteSpace=wrap;html=1;aspect=fixed;" vertex="1" parent="1">
          <mxGeometry x="413" y="490" width="80" height="80" as="geometry" />
        </mxCell>
        <mxCell id="QwXEgg9R403QVItoGBs6-10" value="" style="endArrow=none;html=1;entryX=0.006;entryY=0.836;entryDx=0;entryDy=0;entryPerimeter=0;" edge="1" parent="1" source="QwXEgg9R403QVItoGBs6-11" target="QwXEgg9R403QVItoGBs6-4">
          <mxGeometry width="50" height="50" relative="1" as="geometry">
            <mxPoint x="290" y="400" as="sourcePoint" />
            <mxPoint x="340" y="420" as="targetPoint" />
          </mxGeometry>
        </mxCell>
        <mxCell id="QwXEgg9R403QVItoGBs6-11" value="" style="verticalLabelPosition=bottom;verticalAlign=top;html=1;shape=mxgraph.basic.drop;rotation=-45;fillColor=#f8cecc;strokeColor=#b85450;" vertex="1" parent="1">
          <mxGeometry x="280" y="389.82" width="20" height="30.36" as="geometry" />
        </mxCell>
        <mxCell id="QwXEgg9R403QVItoGBs6-13" value="" style="verticalLabelPosition=bottom;verticalAlign=top;html=1;shape=mxgraph.basic.drop;rotation=-45;fillColor=#fff2cc;strokeColor=#d6b656;" vertex="1" parent="1">
          <mxGeometry x="290" y="400" width="10" height="20.18" as="geometry" />
        </mxCell>
        <mxCell id="QwXEgg9R403QVItoGBs6-14" value="" style="rounded=0;whiteSpace=wrap;html=1;" vertex="1" parent="1">
          <mxGeometry x="273.77" y="470" width="230" height="60" as="geometry" />
        </mxCell>
      </root>
    </mxGraphModel>
  </diagram>
</mxfile>
